<svg width="1280" height="420" viewBox="0 0 1280 420" fill="none" xmlns="http://www.w3.org/2000/svg" role="img" aria-labelledby="title desc">
  <title id="title">Rui Workbench banner</title>
  <desc id="desc">A polished technical banner for a local research and AI automation workbench.</desc>
  <rect width="1280" height="420" rx="28" fill="#0B1220"/>
  <path d="M0 318C116 248 237 232 365 271C493 310 570 323 687 251C817 172 921 151 1044 194C1125 223 1190 268 1280 258V420H0V318Z" fill="#12323A"/>
  <path d="M0 323C117 265 230 254 358 292C486 330 579 329 692 263C813 192 916 179 1036 215C1126 242 1195 288 1280 276" stroke="#2DD4BF" stroke-width="2" opacity="0.34"/>
  <rect x="0.5" y="0.5" width="1279" height="419" rx="27.5" stroke="#1F2937"/>
  <rect x="44" y="42" width="1192" height="336" rx="22" fill="#111827" opacity="0.62" stroke="#273449"/>

  <g opacity="0.42">
    <path d="M88 99H1198" stroke="#334155"/>
    <path d="M88 153H1198" stroke="#334155"/>
    <path d="M88 207H1198" stroke="#334155"/>
    <path d="M88 261H1198" stroke="#334155"/>
    <path d="M88 315H1198" stroke="#334155"/>
    <path d="M156 70V350" stroke="#334155"/>
    <path d="M318 70V350" stroke="#334155"/>
    <path d="M480 70V350" stroke="#334155"/>
    <path d="M642 70V350" stroke="#334155"/>
    <path d="M804 70V350" stroke="#334155"/>
    <path d="M966 70V350" stroke="#334155"/>
    <path d="M1128 70V350" stroke="#334155"/>
  </g>

  <g transform="translate(86 82)">
    <rect x="0" y="0" width="220" height="38" rx="19" fill="#0F766E" opacity="0.95"/>
    <text x="22" y="25" fill="#ECFEFF" font-family="Inter, Segoe UI, Arial, sans-serif" font-size="15" font-weight="800" letter-spacing="2">LOCAL FIRST LAB</text>
    <text x="0" y="99" fill="#F8FAFC" font-family="Inter, Segoe UI, Arial, sans-serif" font-size="64" font-weight="850">Rui Workbench</text>
    <text x="2" y="144" fill="#CBD5E1" font-family="Inter, Segoe UI, Arial, sans-serif" font-size="23">ResearchFlow, Codex skills, Anaconda environments, and media tooling.</text>
  </g>

  <g transform="translate(88 278)">
    <rect x="0" y="0" width="194" height="48" rx="12" fill="#0B1220" stroke="#2DD4BF" opacity="0.96"/>
    <text x="24" y="31" fill="#F8FAFC" font-family="Inter, Segoe UI, Arial, sans-serif" font-size="17" font-weight="800">ResearchFlow</text>
    <rect x="214" y="0" width="172" height="48" rx="12" fill="#0B1220" stroke="#38BDF8" opacity="0.96"/>
    <text x="238" y="31" fill="#F8FAFC" font-family="Inter, Segoe UI, Arial, sans-serif" font-size="17" font-weight="800">Codex Skills</text>
    <rect x="406" y="0" width="152" height="48" rx="12" fill="#0B1220" stroke="#A3E635" opacity="0.96"/>
    <text x="430" y="31" fill="#F8FAFC" font-family="Inter, Segoe UI, Arial, sans-serif" font-size="17" font-weight="800">Anaconda</text>
    <rect x="578" y="0" width="128" height="48" rx="12" fill="#0B1220" stroke="#FACC15" opacity="0.96"/>
    <text x="604" y="31" fill="#F8FAFC" font-family="Inter, Segoe UI, Arial, sans-serif" font-size="17" font-weight="800">yt-dlp</text>
  </g>

  <g transform="translate(845 84)">
    <rect x="0" y="0" width="324" height="238" rx="18" fill="#020617" opacity="0.9" stroke="#334155"/>
    <circle cx="34" cy="34" r="6" fill="#EF4444"/>
    <circle cx="56" cy="34" r="6" fill="#F59E0B"/>
    <circle cx="78" cy="34" r="6" fill="#22C55E"/>
    <text x="32" y="80" fill="#67E8F9" font-family="Consolas, monospace" font-size="16">~/rui-workbench</text>
    <text x="32" y="116" fill="#E5E7EB" font-family="Consolas, monospace" font-size="16">$ collect papers</text>
    <text x="32" y="146" fill="#E5E7EB" font-family="Consolas, monospace" font-size="16">$ build local index</text>
    <text x="32" y="176" fill="#E5E7EB" font-family="Consolas, monospace" font-size="16">$ automate context</text>
    <text x="32" y="206" fill="#86EFAC" font-family="Consolas, monospace" font-size="16">=> reusable workflows</text>
  </g>
</svg>
